<?xml version="1.0" encoding="UTF-8" standalone="no"?>
<!-- Created with Inkscape (http://www.inkscape.org/) -->

<svg
   xmlns:dc="http://purl.org/dc/elements/1.1/"
   xmlns:cc="http://creativecommons.org/ns#"
   xmlns:rdf="http://www.w3.org/1999/02/22-rdf-syntax-ns#"
   xmlns:svg="http://www.w3.org/2000/svg"
   xmlns="http://www.w3.org/2000/svg"
   xmlns:xlink="http://www.w3.org/1999/xlink"
   xmlns:sodipodi="http://sodipodi.sourceforge.net/DTD/sodipodi-0.dtd"
   xmlns:inkscape="http://www.inkscape.org/namespaces/inkscape"
   id="svg2579"
   sodipodi:version="0.32"
   inkscape:version="0.92.5 (2060ec1f9f, 2020-04-08)"
   width="750"
   height="230"
   version="1.0"
   sodipodi:docname="cachalot_dark.svg"
   inkscape:output_extension="org.inkscape.output.svg.inkscape">
  <metadata
     id="metadata2584">
    <rdf:RDF>
      <cc:Work
         rdf:about="">
        <dc:format>image/svg+xml</dc:format>
        <dc:type
           rdf:resource="http://purl.org/dc/dcmitype/StillImage" />
        <dc:title></dc:title>
      </cc:Work>
    </rdf:RDF>
  </metadata>
  <defs
     id="defs2582">
    <linearGradient
       inkscape:collect="always"
       id="linearGradient4550">
      <stop
         style="stop-color:#0d4c92;stop-opacity:1;"
         offset="0"
         id="stop4546" />
      <stop
         style="stop-color:#0d4c92;stop-opacity:0;"
         offset="1"
         id="stop4548" />
    </linearGradient>
    <inkscape:perspective
       sodipodi:type="inkscape:persp3d"
       inkscape:vp_x="0 : 138.5 : 1"
       inkscape:vp_y="0 : 1000 : 0"
       inkscape:vp_z="699 : 138.5 : 1"
       inkscape:persp3d-origin="349.5 : 92.333333 : 1"
       id="perspective7" />
    <inkscape:perspective
       id="perspective2818"
       inkscape:persp3d-origin="344.5 : 84.333333 : 1"
       inkscape:vp_z="689 : 126.5 : 1"
       inkscape:vp_y="0 : 1000 : 0"
       inkscape:vp_x="0 : 126.5 : 1"
       sodipodi:type="inkscape:persp3d" />
    <inkscape:perspective
       id="perspective2827"
       inkscape:persp3d-origin="336.5 : 85.333333 : 1"
       inkscape:vp_z="673 : 128 : 1"
       inkscape:vp_y="0 : 1000 : 0"
       inkscape:vp_x="0 : 128 : 1"
       sodipodi:type="inkscape:persp3d" />
    <inkscape:perspective
       id="perspective2839"
       inkscape:persp3d-origin="0.5 : 0.33333333 : 1"
       inkscape:vp_z="1 : 0.5 : 1"
       inkscape:vp_y="0 : 1000 : 0"
       inkscape:vp_x="0 : 0.5 : 1"
       sodipodi:type="inkscape:persp3d" />
    <linearGradient
       inkscape:collect="always"
       xlink:href="#linearGradient4550"
       id="linearGradient4552"
       x1="14.344176"
       y1="109.52516"
       x2="735.65323"
       y2="109.52516"
       gradientUnits="userSpaceOnUse" />
  </defs>
  <sodipodi:namedview
     inkscape:window-height="1163"
     inkscape:window-width="1920"
     inkscape:pageshadow="2"
     inkscape:pageopacity="0.0"
     guidetolerance="10.0"
     gridtolerance="10.0"
     objecttolerance="10.0"
     borderopacity="1.0"
     bordercolor="#666666"
     pagecolor="#ffffff"
     id="base"
     inkscape:zoom="0.94277539"
     inkscape:cx="133.25973"
     inkscape:cy="18.022696"
     inkscape:window-x="3840"
     inkscape:window-y="0"
     inkscape:current-layer="svg2579"
     showgrid="false"
     showborder="true"
     inkscape:window-maximized="1" />
  <path
     inkscape:connector-curvature="0"
     id="path2977"
     d="m 90.699366,203.54145 c 8.01969,-5.44951 20.312404,-21.2442 28.517714,-36.6419 l 7.79797,-14.63329 8.53144,-0.72117 c 4.69229,-0.39664 25.68466,-0.72117 46.64971,-0.72117 h 38.11828 l 13.58737,-4.03268 c 34.2437,-10.16338 54.81257,-12.67518 75.41641,-9.20959 23.23991,3.909 69.07658,7.56727 94.85862,7.5708 12.25864,0.001 13.88634,0.2296 14.45598,2.02437 1.01028,3.18313 7.41142,6.31861 13.0742,6.40415 4.05711,0.0612 6.29037,-0.71656 10.55149,-3.67506 8.23197,-5.71548 16.98584,-6.11997 33.38317,-1.54249 23.42884,6.54038 31.53615,7.53645 47.82426,5.87572 17.18199,-1.75187 28.33854,-1.15723 49.45751,2.63602 22.82213,4.09915 52.33686,6.8246 64.63327,5.96836 7.15567,-0.49828 13.54711,-0.15408 21.38852,1.15184 14.08408,2.34556 22.20205,1.20396 34.51191,-4.85327 13.17767,-6.48427 23.41285,-17.19227 30.29156,-31.69089 2.92563,-6.16646 6.60643,-13.69351 8.17956,-16.72676 4.16086,-8.0228 4.77713,-18.216433 1.50941,-24.966665 C 728.36764,75.284394 712.32123,64.392818 692.55178,58.006221 667.45896,49.899904 584.3563,33.684672 534.93725,27.252034 525.27062,25.99377 513.27945,24.242116 508.2902,23.359466 473.80527,17.258717 430.96047,13.60578 385.26016,12.869947 c -36.05751,-0.580566 -41.25887,-0.434845 -49.89236,1.397838 -7.40417,1.571724 -15.1579,2.072108 -33.45056,2.158718 -26.96724,0.127669 -25.88267,-0.160916 -36.28535,9.655079 -3.82492,3.609214 -15.24284,11.588307 -26.08011,18.225383 -36.50847,22.358901 -81.76742,53.672183 -111.23029,76.956825 l -10.09886,7.98119 -17.01572,0.0172 c -26.135504,0.0265 -49.285804,3.31886 -71.514404,10.17053 -11.79547,3.63579 -15.22333,5.40323 -15.22333,7.84924 0,4.73858 9.16736,8.95906 29.78279,13.71143 5.46659,1.26018 12.97687,3.31454 16.68952,4.56524 4.15983,1.40137 9.74315,2.27403 14.54921,2.27403 h 7.79895 l -2.08638,5.95306 c -1.73671,4.9553 -1.96829,7.94859 -1.38173,17.8592 0.9353,15.80318 2.54229,17.56066 10.87783,11.89651 v -2e-5 z m -7.53066,-11.18523 c -1.02742,-13.9968 0.55517,-20.13285 6.9593,-26.98271 3.91203,-4.18433 2.36099,-6.22775 -2.46376,-3.24589 -5.61585,3.47078 -12.42669,3.91378 -21.60183,1.40503 -4.36558,-1.19369 -14.93615,-4.01196 -23.49015,-6.26286 -14.95265,-3.93462 -24.70133,-7.75133 -24.70133,-9.67082 0,-0.97303 14.22077,-5.75657 25.62021,-8.61804 19.67754,-4.93944 24.6212,-5.45089 58.006184,-6.00112 18.24191,-0.30064 33.1671,-1.00108 33.1671,-1.55652 0,-0.55543 -1.40322,-1.06075 -3.11828,-1.12291 -10.09245,-0.36583 -9.89483,-0.61689 15.15184,-19.24833 38.61284,-28.722873 63.48253,-45.552275 102.6758,-69.481009 8.07583,-4.930546 15.631,-10.435239 17.26797,-12.581404 1.60065,-2.098564 4.8347,-5.01204 7.18675,-6.474373 4.1124,-2.5568 5.16825,-2.661384 27.52177,-2.726061 17.61296,-0.05091 25.82925,-0.568126 33.90956,-2.134417 9.54081,-1.849386 15.0357,-2.001942 52.1602,-1.448184 30.91101,0.461084 47.13621,1.229222 63.60733,3.01131 23.98525,2.595071 52.61682,6.363306 61.74165,8.125902 3.14955,0.608379 16.95221,2.619134 30.67263,4.468349 59.70541,8.047016 132.06337,22.995652 155.93592,32.215237 12.9173,4.988664 25.2162,13.00267 29.20493,19.030044 2.24358,3.390297 3.11552,6.364972 3.46236,11.812128 0.49908,7.837758 1.12874,6.070618 -11.27755,31.650758 -7.83995,16.16491 -20.30333,27.4431 -36.60421,33.12334 -6.95124,2.42222 -9.29437,2.71288 -17.12446,2.12416 -4.98925,-0.37512 -13.91886,-1.91941 -19.84357,-3.43177 -5.92471,-1.51235 -13.57867,-3.08456 -17.00877,-3.4938 -12.25431,-1.46205 -29.66768,-5.25924 -37.16577,-8.10445 -19.79216,-7.5103 -23.82922,-8.66295 -32.39876,-9.25031 -7.38637,-0.50627 -8.88613,-0.33338 -8.45243,0.97436 0.35473,1.0696 3.28009,1.84912 8.93984,2.38216 8.17212,0.76968 10.83859,1.53681 29.95699,8.61855 10.18505,3.7727 16.84357,5.29828 35.71838,8.18368 l 13.04006,1.99342 -9.23371,0.12779 c -12.04163,0.16666 -37.46919,-2.5294 -58.80131,-6.23464 -16.03235,-2.78471 -18.45466,-2.91508 -42.19559,-2.27122 -27.15401,0.73642 -31.86849,0.22088 -50.94962,-5.57155 -5.23466,-1.58909 -12.1115,-2.81176 -15.87486,-2.8225 l -6.63951,-0.0189 9.61835,-5.16356 c 10.82584,-5.81177 12.70731,-7.14151 11.91608,-8.42173 -0.56601,-0.91581 -31.47524,14.39822 -37.17892,18.42033 -5.0543,3.56421 -10.87188,3.80754 -15.53825,0.64992 -7.1693,-4.85128 -5.63252,-11.59905 5.21194,-22.88503 7.41863,-7.72066 11.69915,-9.77606 20.35927,-9.77606 4.59921,0 6.23147,-0.39362 5.87775,-1.41741 -0.85053,-2.46174 -14.25167,-1.61975 -19.81606,1.24505 -5.82656,2.99975 -16.85741,15.99944 -18.64821,21.9766 l -1.28108,4.27585 h -16.44165 c -21.22107,0 -58.81079,-2.86541 -79.0154,-6.02325 -22.92271,-3.58266 -42.02278,-3.31902 -60.66458,0.83735 -7.79567,1.73811 -19.78685,4.85352 -26.64705,6.92312 l -12.47309,3.76289 -45.92366,0.54474 c -35.60351,0.42233 -48.0896,0.95443 -55.56195,2.36781 -14.78227,2.79605 -21.216974,5.23995 -19.80631,7.52246 0.31859,0.51548 2.22645,0.25057 4.23971,-0.58868 3.91953,-1.6339 16.81029,-4.27547 17.49973,-3.58603 0.80804,0.80806 -13.54353,26.29999 -17.6299,31.315 -6.435304,7.8978 -17.019224,18.15613 -18.732364,18.15613 -1.13932,0 -1.75055,-2.79321 -2.32566,-10.6279 z M 540.48861,115.76956 c 0.87044,-0.55117 1.26914,-1.81902 0.88601,-2.81744 -0.75891,-1.9777 -4.90339,-2.3925 -7.49837,-0.75044 -1.34918,0.85372 -1.37395,1.33619 -0.14462,2.81741 1.64397,1.98088 4.34077,2.28039 6.75698,0.75047 z"
     style="fill:#0d4c92;fill-opacity:1;stroke:url(#linearGradient4552);stroke-width:0.25;stroke-opacity:0"
     sodipodi:nodetypes="cccccccscsssssssssssssssssssscccsssscccscccssssssssssssscsssssssssssssssssscccssscccssssssscccsscccssssssccsssc" />
</svg>
